<svg xmlns="http://www.w3.org/2000/svg" xmlns:xlink="http://www.w3.org/1999/xlink" width="500" zoomAndPan="magnify" viewBox="0 0 375 225" height="300" preserveAspectRatio="xMidYMid meet" version="1.0"><defs><g/></defs><g fill="#00aacc" fill-opacity="0.502"><g transform="translate(-1.828573, 214.843587)"><g><path d="M 12.15625 -96.421875 L 102.359375 -164.5625 L 129.78125 -147.03125 L 54.859375 -89.34375 L 119.03125 -39.296875 L 103.484375 -21.203125 Z M 12.15625 -96.421875 "/></g></g></g><g fill="#00aacc" fill-opacity="0.502"><g transform="translate(139.265172, 214.843587)"><g><path d="M 120.453125 -190.296875 L 45.234375 8.203125 L 8.484375 0 L 84.265625 -201.890625 Z M 120.453125 -190.296875 "/></g></g></g><g fill="#00aacc" fill-opacity="0.502"><g transform="translate(262.545431, 214.843587)"><g><path d="M 22.90625 -39.296875 L 87.09375 -89.34375 L 12.15625 -147.03125 L 39.578125 -164.5625 L 129.78125 -96.421875 L 38.453125 -21.203125 Z M 22.90625 -39.296875 "/></g></g></g><g fill="#00aacc" fill-opacity="1"><g transform="translate(-15.366273, 203.484109)"><g><path d="M 12.15625 -96.421875 L 102.359375 -164.5625 L 129.78125 -147.03125 L 54.859375 -89.34375 L 119.03125 -39.296875 L 103.484375 -21.203125 Z M 12.15625 -96.421875 "/></g></g></g><g fill="#00aacc" fill-opacity="1"><g transform="translate(125.727471, 203.484109)"><g><path d="M 120.453125 -190.296875 L 45.234375 8.203125 L 8.484375 0 L 84.265625 -201.890625 Z M 120.453125 -190.296875 "/></g></g></g><g fill="#00aacc" fill-opacity="1"><g transform="translate(249.00773, 203.484109)"><g><path d="M 22.90625 -39.296875 L 87.09375 -89.34375 L 12.15625 -147.03125 L 39.578125 -164.5625 L 129.78125 -96.421875 L 38.453125 -21.203125 Z M 22.90625 -39.296875 "/></g></g></g><g fill="#ff00ff" fill-opacity="1"><g transform="translate(84.442748, 128.841851)"><g><path d="M 2.09375 0 L 23.3125 0 L 26.980469 -10.085938 L 58.023438 -10.085938 L 61.820312 0 L 82.910156 0 L 43.484375 -97.054688 L 41.519531 -97.054688 Z M 33.792969 -27.636719 L 42.566406 -52 L 51.082031 -27.636719 Z M 33.792969 -27.636719 "/></g></g></g><g fill="#ff00ff" fill-opacity="1"><g transform="translate(169.970897, 128.841851)"><g><path d="M 10.476562 -93.648438 L 10.476562 0 L 58.941406 0 L 58.941406 -18.730469 L 29.207031 -18.730469 L 29.207031 -93.648438 Z M 10.476562 -93.648438 "/></g></g></g><g fill="#ff00ff" fill-opacity="1"><g transform="translate(234.542656, 128.841851)"><g><path d="M 10.476562 -93.648438 L 10.476562 0 L 58.941406 0 L 58.941406 -18.730469 L 29.207031 -18.730469 L 29.207031 -93.648438 Z M 10.476562 -93.648438 "/></g></g></g><g fill="#00ffff" fill-opacity="1"><g transform="translate(75.651635, 133.917404)"><g><path d="M 2.09375 0 L 23.3125 0 L 26.980469 -10.085938 L 58.023438 -10.085938 L 61.820312 0 L 82.910156 0 L 43.484375 -97.054688 L 41.519531 -97.054688 Z M 33.792969 -27.636719 L 42.566406 -52 L 51.082031 -27.636719 Z M 33.792969 -27.636719 "/></g></g></g><g fill="#00ffff" fill-opacity="1"><g transform="translate(161.179784, 133.917404)"><g><path d="M 10.476562 -93.648438 L 10.476562 0 L 58.941406 0 L 58.941406 -18.730469 L 29.207031 -18.730469 L 29.207031 -93.648438 Z M 10.476562 -93.648438 "/></g></g></g><g fill="#00ffff" fill-opacity="1"><g transform="translate(225.751543, 133.917404)"><g><path d="M 10.476562 -93.648438 L 10.476562 0 L 58.941406 0 L 58.941406 -18.730469 L 29.207031 -18.730469 L 29.207031 -93.648438 Z M 10.476562 -93.648438 "/></g></g></g><g fill="#e8e8e8" fill-opacity="1"><g transform="translate(80.047192, 131.379627)"><g><path d="M 2.09375 0 L 23.3125 0 L 26.980469 -10.085938 L 58.023438 -10.085938 L 61.820312 0 L 82.910156 0 L 43.484375 -97.054688 L 41.519531 -97.054688 Z M 33.792969 -27.636719 L 42.566406 -52 L 51.082031 -27.636719 Z M 33.792969 -27.636719 "/></g></g></g><g fill="#e8e8e8" fill-opacity="1"><g transform="translate(165.575341, 131.379627)"><g><path d="M 10.476562 -93.648438 L 10.476562 0 L 58.941406 0 L 58.941406 -18.730469 L 29.207031 -18.730469 L 29.207031 -93.648438 Z M 10.476562 -93.648438 "/></g></g></g><g fill="#e8e8e8" fill-opacity="1"><g transform="translate(230.147099, 131.379627)"><g><path d="M 10.476562 -93.648438 L 10.476562 0 L 58.941406 0 L 58.941406 -18.730469 L 29.207031 -18.730469 L 29.207031 -93.648438 Z M 10.476562 -93.648438 "/></g></g></g><g fill="#ff00ff" fill-opacity="1"><g transform="translate(76.987725, 199.199455)"><g><path d="M 45.9375 -39.484375 L 42.46875 -34.46875 C 41.5 -34.789062 40.375 -35.191406 39.09375 -35.671875 C 37.8125 -36.160156 36.816406 -36.515625 36.109375 -36.734375 C 35.398438 -36.960938 34.628906 -37.203125 33.796875 -37.453125 C 32.960938 -37.710938 32.269531 -37.890625 31.71875 -37.984375 C 31.175781 -38.085938 30.679688 -38.140625 30.234375 -38.140625 C 26.066406 -37.941406 22.535156 -35.242188 19.640625 -30.046875 C 16.878906 -25.035156 15.820312 -19.992188 16.46875 -14.921875 C 17.039062 -9.847656 19.285156 -7.023438 23.203125 -6.453125 C 27.765625 -5.804688 33.863281 -8.4375 41.5 -14.34375 L 43.328125 -12.234375 C 44.617188 -10.816406 45.875 -9.367188 47.09375 -7.890625 L 48.921875 -5.78125 C 46.410156 -3.914062 44.207031 -2.40625 42.3125 -1.25 C 40.425781 -0.09375 38.488281 0.851562 36.5 1.59375 C 34.507812 2.332031 32.566406 2.679688 30.671875 2.640625 C 28.773438 2.609375 26.832031 2.207031 24.84375 1.4375 C 19.320312 -0.675781 14.125 -4.394531 9.25 -9.71875 C 6.351562 -12.9375 4.757812 -16.742188 4.46875 -21.140625 C 4.1875 -25.535156 4.957031 -29.625 6.78125 -33.40625 C 8.613281 -37.195312 11.328125 -40.425781 14.921875 -43.09375 C 18.515625 -45.757812 22.429688 -47.09375 26.671875 -47.09375 C 28.660156 -47.09375 35.082031 -44.554688 45.9375 -39.484375 Z M 45.9375 -39.484375 "/></g></g></g><g fill="#ff00ff" fill-opacity="1"><g transform="translate(124.847156, 199.199455)"><g><path d="M 36.6875 -36.296875 C 32.445312 -39.191406 28.050781 -38.742188 23.5 -34.953125 C 19.707031 -31.742188 17.171875 -27.472656 15.890625 -22.140625 C 14.472656 -16.046875 15.5625 -11.457031 19.15625 -8.375 C 19.613281 -7.988281 20.097656 -7.632812 20.609375 -7.3125 C 23.171875 -5.90625 25.816406 -5.585938 28.546875 -6.359375 C 31.273438 -7.128906 33.648438 -8.828125 35.671875 -11.453125 C 37.703125 -14.085938 39.289062 -16.894531 40.4375 -19.875 C 41.59375 -22.863281 41.878906 -25.914062 41.296875 -29.03125 C 40.722656 -32.144531 39.1875 -34.566406 36.6875 -36.296875 Z M 46.3125 -35.53125 C 48.175781 -33.863281 49.617188 -31.859375 50.640625 -29.515625 C 51.671875 -27.171875 52.265625 -24.78125 52.421875 -22.34375 C 52.585938 -19.90625 52.363281 -17.429688 51.75 -14.921875 C 51.144531 -12.421875 50.234375 -10.078125 49.015625 -7.890625 C 47.796875 -5.710938 46.269531 -3.769531 44.4375 -2.0625 C 42.613281 -0.363281 40.609375 0.914062 38.421875 1.78125 C 36.234375 2.644531 33.804688 2.976562 31.140625 2.78125 C 28.484375 2.59375 25.773438 1.757812 23.015625 0.28125 C 19.421875 -1.632812 15.890625 -4.070312 12.421875 -7.03125 C 9.660156 -9.40625 7.601562 -12.082031 6.25 -15.0625 C 4.90625 -18.050781 4.28125 -20.957031 4.375 -23.78125 C 4.476562 -26.601562 5.023438 -29.425781 6.015625 -32.25 C 7.015625 -35.082031 8.457031 -37.523438 10.34375 -39.578125 C 12.238281 -41.628906 14.3125 -43.378906 16.5625 -44.828125 C 18.8125 -46.273438 21.234375 -47.03125 23.828125 -47.09375 C 26.429688 -47.15625 28.953125 -46.609375 31.390625 -45.453125 C 37.617188 -42.179688 42.59375 -38.875 46.3125 -35.53125 Z M 46.3125 -35.53125 "/></g></g></g><g fill="#ff00ff" fill-opacity="1"><g transform="translate(178.002904, 199.199455)"><g><path d="M 19.734375 -4.90625 C 24.804688 -2.34375 30.941406 -3.597656 38.140625 -8.671875 L 38.140625 -35.71875 C 36.273438 -36.8125 33.671875 -37.550781 30.328125 -37.9375 C 27.703125 -38.195312 25.132812 -36.863281 22.625 -33.9375 C 20.125 -31.019531 18.226562 -27.632812 16.9375 -23.78125 C 15.65625 -19.925781 15.191406 -16.117188 15.546875 -12.359375 C 15.898438 -8.609375 17.296875 -6.125 19.734375 -4.90625 Z M 38.140625 -68.375 L 50.171875 -65.671875 C 50.554688 -22.335938 50.554688 -0.476562 50.171875 -0.09375 C 49.847656 -0.03125 48.191406 0.332031 45.203125 1 C 42.222656 1.675781 40.316406 2.078125 39.484375 2.203125 C 38.648438 2.335938 36.929688 2.53125 34.328125 2.78125 C 31.734375 3.039062 29.679688 3.039062 28.171875 2.78125 C 26.660156 2.53125 24.78125 2.097656 22.53125 1.484375 C 20.28125 0.878906 18.128906 0 16.078125 -1.15625 C 12.421875 -3.144531 9.597656 -5.582031 7.609375 -8.46875 C 5.617188 -11.363281 4.554688 -14.316406 4.421875 -17.328125 C 4.296875 -20.347656 4.648438 -23.414062 5.484375 -26.53125 C 6.316406 -29.644531 7.648438 -32.5 9.484375 -35.09375 C 11.316406 -37.695312 13.273438 -39.992188 15.359375 -41.984375 C 17.441406 -43.972656 19.640625 -45.398438 21.953125 -46.265625 C 24.265625 -47.140625 26.320312 -47.285156 28.125 -46.703125 C 28.957031 -46.441406 29.835938 -46.070312 30.765625 -45.59375 C 31.691406 -45.113281 32.460938 -44.679688 33.078125 -44.296875 C 33.691406 -43.910156 34.554688 -43.332031 35.671875 -42.5625 C 36.796875 -41.789062 37.617188 -41.242188 38.140625 -40.921875 Z M 38.140625 -68.375 "/></g></g></g><g fill="#ff00ff" fill-opacity="1"><g transform="translate(230.869761, 199.199455)"><g><path d="M 15.890625 -19.15625 L 37.75 -34.09375 C 33.125 -37.039062 29.191406 -38.128906 25.953125 -37.359375 C 22.710938 -36.585938 20.222656 -34.582031 18.484375 -31.34375 C 16.753906 -28.101562 15.890625 -24.039062 15.890625 -19.15625 Z M 18.109375 -9.921875 C 19.898438 -7.734375 21.921875 -6.382812 24.171875 -5.875 C 26.421875 -5.363281 28.78125 -5.664062 31.25 -6.78125 C 33.71875 -7.90625 35.785156 -9.03125 37.453125 -10.15625 C 39.128906 -11.28125 41.085938 -12.773438 43.328125 -14.640625 L 45.265625 -12.71875 C 46.484375 -11.363281 47.703125 -10.015625 48.921875 -8.671875 L 50.84375 -6.734375 C 45.257812 -2.628906 40.539062 0.109375 36.6875 1.484375 C 32.832031 2.867188 29.015625 2.851562 25.234375 1.4375 C 19.710938 -0.675781 14.507812 -4.394531 9.625 -9.71875 C 6.738281 -12.9375 5.070312 -16.742188 4.625 -21.140625 C 4.175781 -25.535156 4.738281 -29.625 6.3125 -33.40625 C 7.882812 -37.195312 10.320312 -40.425781 13.625 -43.09375 C 16.925781 -45.757812 20.535156 -47.09375 24.453125 -47.09375 C 27.023438 -47.09375 30.832031 -45.4375 35.875 -42.125 C 40.914062 -38.820312 45.101562 -35.597656 48.4375 -32.453125 C 48.375 -32.253906 45.820312 -30.273438 40.78125 -26.515625 C 35.738281 -22.765625 30.679688 -19.0625 25.609375 -15.40625 Z M 18.109375 -9.921875 "/></g></g></g><g fill="#ff00ff" fill-opacity="1"><g transform="translate(280.46254, 199.199455)"><g><path d="M 13.671875 2.125 C 10.398438 0.582031 7.960938 -1.757812 6.359375 -4.90625 C 6.484375 -5.9375 7.441406 -7.253906 9.234375 -8.859375 C 11.035156 -10.460938 12.484375 -11.394531 13.578125 -11.65625 C 16.847656 -10.175781 19.253906 -7.894531 20.796875 -4.8125 C 19.703125 -2.050781 17.328125 0.257812 13.671875 2.125 Z M 13.671875 2.125 "/></g></g></g><g fill="#00ffff" fill-opacity="1"><g transform="translate(71.462774, 202.389283)"><g><path d="M 45.9375 -39.484375 L 42.46875 -34.46875 C 41.5 -34.789062 40.375 -35.191406 39.09375 -35.671875 C 37.8125 -36.160156 36.816406 -36.515625 36.109375 -36.734375 C 35.398438 -36.960938 34.628906 -37.203125 33.796875 -37.453125 C 32.960938 -37.710938 32.269531 -37.890625 31.71875 -37.984375 C 31.175781 -38.085938 30.679688 -38.140625 30.234375 -38.140625 C 26.066406 -37.941406 22.535156 -35.242188 19.640625 -30.046875 C 16.878906 -25.035156 15.820312 -19.992188 16.46875 -14.921875 C 17.039062 -9.847656 19.285156 -7.023438 23.203125 -6.453125 C 27.765625 -5.804688 33.863281 -8.4375 41.5 -14.34375 L 43.328125 -12.234375 C 44.617188 -10.816406 45.875 -9.367188 47.09375 -7.890625 L 48.921875 -5.78125 C 46.410156 -3.914062 44.207031 -2.40625 42.3125 -1.25 C 40.425781 -0.09375 38.488281 0.851562 36.5 1.59375 C 34.507812 2.332031 32.566406 2.679688 30.671875 2.640625 C 28.773438 2.609375 26.832031 2.207031 24.84375 1.4375 C 19.320312 -0.675781 14.125 -4.394531 9.25 -9.71875 C 6.351562 -12.9375 4.757812 -16.742188 4.46875 -21.140625 C 4.1875 -25.535156 4.957031 -29.625 6.78125 -33.40625 C 8.613281 -37.195312 11.328125 -40.425781 14.921875 -43.09375 C 18.515625 -45.757812 22.429688 -47.09375 26.671875 -47.09375 C 28.660156 -47.09375 35.082031 -44.554688 45.9375 -39.484375 Z M 45.9375 -39.484375 "/></g></g></g><g fill="#00ffff" fill-opacity="1"><g transform="translate(119.322205, 202.389283)"><g><path d="M 36.6875 -36.296875 C 32.445312 -39.191406 28.050781 -38.742188 23.5 -34.953125 C 19.707031 -31.742188 17.171875 -27.472656 15.890625 -22.140625 C 14.472656 -16.046875 15.5625 -11.457031 19.15625 -8.375 C 19.613281 -7.988281 20.097656 -7.632812 20.609375 -7.3125 C 23.171875 -5.90625 25.816406 -5.585938 28.546875 -6.359375 C 31.273438 -7.128906 33.648438 -8.828125 35.671875 -11.453125 C 37.703125 -14.085938 39.289062 -16.894531 40.4375 -19.875 C 41.59375 -22.863281 41.878906 -25.914062 41.296875 -29.03125 C 40.722656 -32.144531 39.1875 -34.566406 36.6875 -36.296875 Z M 46.3125 -35.53125 C 48.175781 -33.863281 49.617188 -31.859375 50.640625 -29.515625 C 51.671875 -27.171875 52.265625 -24.78125 52.421875 -22.34375 C 52.585938 -19.90625 52.363281 -17.429688 51.75 -14.921875 C 51.144531 -12.421875 50.234375 -10.078125 49.015625 -7.890625 C 47.796875 -5.710938 46.269531 -3.769531 44.4375 -2.0625 C 42.613281 -0.363281 40.609375 0.914062 38.421875 1.78125 C 36.234375 2.644531 33.804688 2.976562 31.140625 2.78125 C 28.484375 2.59375 25.773438 1.757812 23.015625 0.28125 C 19.421875 -1.632812 15.890625 -4.070312 12.421875 -7.03125 C 9.660156 -9.40625 7.601562 -12.082031 6.25 -15.0625 C 4.90625 -18.050781 4.28125 -20.957031 4.375 -23.78125 C 4.476562 -26.601562 5.023438 -29.425781 6.015625 -32.25 C 7.015625 -35.082031 8.457031 -37.523438 10.34375 -39.578125 C 12.238281 -41.628906 14.3125 -43.378906 16.5625 -44.828125 C 18.8125 -46.273438 21.234375 -47.03125 23.828125 -47.09375 C 26.429688 -47.15625 28.953125 -46.609375 31.390625 -45.453125 C 37.617188 -42.179688 42.59375 -38.875 46.3125 -35.53125 Z M 46.3125 -35.53125 "/></g></g></g><g fill="#00ffff" fill-opacity="1"><g transform="translate(172.477953, 202.389283)"><g><path d="M 19.734375 -4.90625 C 24.804688 -2.34375 30.941406 -3.597656 38.140625 -8.671875 L 38.140625 -35.71875 C 36.273438 -36.8125 33.671875 -37.550781 30.328125 -37.9375 C 27.703125 -38.195312 25.132812 -36.863281 22.625 -33.9375 C 20.125 -31.019531 18.226562 -27.632812 16.9375 -23.78125 C 15.65625 -19.925781 15.191406 -16.117188 15.546875 -12.359375 C 15.898438 -8.609375 17.296875 -6.125 19.734375 -4.90625 Z M 38.140625 -68.375 L 50.171875 -65.671875 C 50.554688 -22.335938 50.554688 -0.476562 50.171875 -0.09375 C 49.847656 -0.03125 48.191406 0.332031 45.203125 1 C 42.222656 1.675781 40.316406 2.078125 39.484375 2.203125 C 38.648438 2.335938 36.929688 2.53125 34.328125 2.78125 C 31.734375 3.039062 29.679688 3.039062 28.171875 2.78125 C 26.660156 2.53125 24.78125 2.097656 22.53125 1.484375 C 20.28125 0.878906 18.128906 0 16.078125 -1.15625 C 12.421875 -3.144531 9.597656 -5.582031 7.609375 -8.46875 C 5.617188 -11.363281 4.554688 -14.316406 4.421875 -17.328125 C 4.296875 -20.347656 4.648438 -23.414062 5.484375 -26.53125 C 6.316406 -29.644531 7.648438 -32.5 9.484375 -35.09375 C 11.316406 -37.695312 13.273438 -39.992188 15.359375 -41.984375 C 17.441406 -43.972656 19.640625 -45.398438 21.953125 -46.265625 C 24.265625 -47.140625 26.320312 -47.285156 28.125 -46.703125 C 28.957031 -46.441406 29.835938 -46.070312 30.765625 -45.59375 C 31.691406 -45.113281 32.460938 -44.679688 33.078125 -44.296875 C 33.691406 -43.910156 34.554688 -43.332031 35.671875 -42.5625 C 36.796875 -41.789062 37.617188 -41.242188 38.140625 -40.921875 Z M 38.140625 -68.375 "/></g></g></g><g fill="#00ffff" fill-opacity="1"><g transform="translate(225.34481, 202.389283)"><g><path d="M 15.890625 -19.15625 L 37.75 -34.09375 C 33.125 -37.039062 29.191406 -38.128906 25.953125 -37.359375 C 22.710938 -36.585938 20.222656 -34.582031 18.484375 -31.34375 C 16.753906 -28.101562 15.890625 -24.039062 15.890625 -19.15625 Z M 18.109375 -9.921875 C 19.898438 -7.734375 21.921875 -6.382812 24.171875 -5.875 C 26.421875 -5.363281 28.78125 -5.664062 31.25 -6.78125 C 33.71875 -7.90625 35.785156 -9.03125 37.453125 -10.15625 C 39.128906 -11.28125 41.085938 -12.773438 43.328125 -14.640625 L 45.265625 -12.71875 C 46.484375 -11.363281 47.703125 -10.015625 48.921875 -8.671875 L 50.84375 -6.734375 C 45.257812 -2.628906 40.539062 0.109375 36.6875 1.484375 C 32.832031 2.867188 29.015625 2.851562 25.234375 1.4375 C 19.710938 -0.675781 14.507812 -4.394531 9.625 -9.71875 C 6.738281 -12.9375 5.070312 -16.742188 4.625 -21.140625 C 4.175781 -25.535156 4.738281 -29.625 6.3125 -33.40625 C 7.882812 -37.195312 10.320312 -40.425781 13.625 -43.09375 C 16.925781 -45.757812 20.535156 -47.09375 24.453125 -47.09375 C 27.023438 -47.09375 30.832031 -45.4375 35.875 -42.125 C 40.914062 -38.820312 45.101562 -35.597656 48.4375 -32.453125 C 48.375 -32.253906 45.820312 -30.273438 40.78125 -26.515625 C 35.738281 -22.765625 30.679688 -19.0625 25.609375 -15.40625 Z M 18.109375 -9.921875 "/></g></g></g><g fill="#00ffff" fill-opacity="1"><g transform="translate(274.937589, 202.389283)"><g><path d="M 13.671875 2.125 C 10.398438 0.582031 7.960938 -1.757812 6.359375 -4.90625 C 6.484375 -5.9375 7.441406 -7.253906 9.234375 -8.859375 C 11.035156 -10.460938 12.484375 -11.394531 13.578125 -11.65625 C 16.847656 -10.175781 19.253906 -7.894531 20.796875 -4.8125 C 19.703125 -2.050781 17.328125 0.257812 13.671875 2.125 Z M 13.671875 2.125 "/></g></g></g><g fill="#e8e8e8" fill-opacity="1"><g transform="translate(74.225248, 200.794368)"><g><path d="M 45.9375 -39.484375 L 42.46875 -34.46875 C 41.5 -34.789062 40.375 -35.191406 39.09375 -35.671875 C 37.8125 -36.160156 36.816406 -36.515625 36.109375 -36.734375 C 35.398438 -36.960938 34.628906 -37.203125 33.796875 -37.453125 C 32.960938 -37.710938 32.269531 -37.890625 31.71875 -37.984375 C 31.175781 -38.085938 30.679688 -38.140625 30.234375 -38.140625 C 26.066406 -37.941406 22.535156 -35.242188 19.640625 -30.046875 C 16.878906 -25.035156 15.820312 -19.992188 16.46875 -14.921875 C 17.039062 -9.847656 19.285156 -7.023438 23.203125 -6.453125 C 27.765625 -5.804688 33.863281 -8.4375 41.5 -14.34375 L 43.328125 -12.234375 C 44.617188 -10.816406 45.875 -9.367188 47.09375 -7.890625 L 48.921875 -5.78125 C 46.410156 -3.914062 44.207031 -2.40625 42.3125 -1.25 C 40.425781 -0.09375 38.488281 0.851562 36.5 1.59375 C 34.507812 2.332031 32.566406 2.679688 30.671875 2.640625 C 28.773438 2.609375 26.832031 2.207031 24.84375 1.4375 C 19.320312 -0.675781 14.125 -4.394531 9.25 -9.71875 C 6.351562 -12.9375 4.757812 -16.742188 4.46875 -21.140625 C 4.1875 -25.535156 4.957031 -29.625 6.78125 -33.40625 C 8.613281 -37.195312 11.328125 -40.425781 14.921875 -43.09375 C 18.515625 -45.757812 22.429688 -47.09375 26.671875 -47.09375 C 28.660156 -47.09375 35.082031 -44.554688 45.9375 -39.484375 Z M 45.9375 -39.484375 "/></g></g></g><g fill="#e8e8e8" fill-opacity="1"><g transform="translate(122.08468, 200.794368)"><g><path d="M 36.6875 -36.296875 C 32.445312 -39.191406 28.050781 -38.742188 23.5 -34.953125 C 19.707031 -31.742188 17.171875 -27.472656 15.890625 -22.140625 C 14.472656 -16.046875 15.5625 -11.457031 19.15625 -8.375 C 19.613281 -7.988281 20.097656 -7.632812 20.609375 -7.3125 C 23.171875 -5.90625 25.816406 -5.585938 28.546875 -6.359375 C 31.273438 -7.128906 33.648438 -8.828125 35.671875 -11.453125 C 37.703125 -14.085938 39.289062 -16.894531 40.4375 -19.875 C 41.59375 -22.863281 41.878906 -25.914062 41.296875 -29.03125 C 40.722656 -32.144531 39.1875 -34.566406 36.6875 -36.296875 Z M 46.3125 -35.53125 C 48.175781 -33.863281 49.617188 -31.859375 50.640625 -29.515625 C 51.671875 -27.171875 52.265625 -24.78125 52.421875 -22.34375 C 52.585938 -19.90625 52.363281 -17.429688 51.75 -14.921875 C 51.144531 -12.421875 50.234375 -10.078125 49.015625 -7.890625 C 47.796875 -5.710938 46.269531 -3.769531 44.4375 -2.0625 C 42.613281 -0.363281 40.609375 0.914062 38.421875 1.78125 C 36.234375 2.644531 33.804688 2.976562 31.140625 2.78125 C 28.484375 2.59375 25.773438 1.757812 23.015625 0.28125 C 19.421875 -1.632812 15.890625 -4.070312 12.421875 -7.03125 C 9.660156 -9.40625 7.601562 -12.082031 6.25 -15.0625 C 4.90625 -18.050781 4.28125 -20.957031 4.375 -23.78125 C 4.476562 -26.601562 5.023438 -29.425781 6.015625 -32.25 C 7.015625 -35.082031 8.457031 -37.523438 10.34375 -39.578125 C 12.238281 -41.628906 14.3125 -43.378906 16.5625 -44.828125 C 18.8125 -46.273438 21.234375 -47.03125 23.828125 -47.09375 C 26.429688 -47.15625 28.953125 -46.609375 31.390625 -45.453125 C 37.617188 -42.179688 42.59375 -38.875 46.3125 -35.53125 Z M 46.3125 -35.53125 "/></g></g></g><g fill="#e8e8e8" fill-opacity="1"><g transform="translate(175.240427, 200.794368)"><g><path d="M 19.734375 -4.90625 C 24.804688 -2.34375 30.941406 -3.597656 38.140625 -8.671875 L 38.140625 -35.71875 C 36.273438 -36.8125 33.671875 -37.550781 30.328125 -37.9375 C 27.703125 -38.195312 25.132812 -36.863281 22.625 -33.9375 C 20.125 -31.019531 18.226562 -27.632812 16.9375 -23.78125 C 15.65625 -19.925781 15.191406 -16.117188 15.546875 -12.359375 C 15.898438 -8.609375 17.296875 -6.125 19.734375 -4.90625 Z M 38.140625 -68.375 L 50.171875 -65.671875 C 50.554688 -22.335938 50.554688 -0.476562 50.171875 -0.09375 C 49.847656 -0.03125 48.191406 0.332031 45.203125 1 C 42.222656 1.675781 40.316406 2.078125 39.484375 2.203125 C 38.648438 2.335938 36.929688 2.53125 34.328125 2.78125 C 31.734375 3.039062 29.679688 3.039062 28.171875 2.78125 C 26.660156 2.53125 24.78125 2.097656 22.53125 1.484375 C 20.28125 0.878906 18.128906 0 16.078125 -1.15625 C 12.421875 -3.144531 9.597656 -5.582031 7.609375 -8.46875 C 5.617188 -11.363281 4.554688 -14.316406 4.421875 -17.328125 C 4.296875 -20.347656 4.648438 -23.414062 5.484375 -26.53125 C 6.316406 -29.644531 7.648438 -32.5 9.484375 -35.09375 C 11.316406 -37.695312 13.273438 -39.992188 15.359375 -41.984375 C 17.441406 -43.972656 19.640625 -45.398438 21.953125 -46.265625 C 24.265625 -47.140625 26.320312 -47.285156 28.125 -46.703125 C 28.957031 -46.441406 29.835938 -46.070312 30.765625 -45.59375 C 31.691406 -45.113281 32.460938 -44.679688 33.078125 -44.296875 C 33.691406 -43.910156 34.554688 -43.332031 35.671875 -42.5625 C 36.796875 -41.789062 37.617188 -41.242188 38.140625 -40.921875 Z M 38.140625 -68.375 "/></g></g></g><g fill="#e8e8e8" fill-opacity="1"><g transform="translate(228.107285, 200.794368)"><g><path d="M 15.890625 -19.15625 L 37.75 -34.09375 C 33.125 -37.039062 29.191406 -38.128906 25.953125 -37.359375 C 22.710938 -36.585938 20.222656 -34.582031 18.484375 -31.34375 C 16.753906 -28.101562 15.890625 -24.039062 15.890625 -19.15625 Z M 18.109375 -9.921875 C 19.898438 -7.734375 21.921875 -6.382812 24.171875 -5.875 C 26.421875 -5.363281 28.78125 -5.664062 31.25 -6.78125 C 33.71875 -7.90625 35.785156 -9.03125 37.453125 -10.15625 C 39.128906 -11.28125 41.085938 -12.773438 43.328125 -14.640625 L 45.265625 -12.71875 C 46.484375 -11.363281 47.703125 -10.015625 48.921875 -8.671875 L 50.84375 -6.734375 C 45.257812 -2.628906 40.539062 0.109375 36.6875 1.484375 C 32.832031 2.867188 29.015625 2.851562 25.234375 1.4375 C 19.710938 -0.675781 14.507812 -4.394531 9.625 -9.71875 C 6.738281 -12.9375 5.070312 -16.742188 4.625 -21.140625 C 4.175781 -25.535156 4.738281 -29.625 6.3125 -33.40625 C 7.882812 -37.195312 10.320312 -40.425781 13.625 -43.09375 C 16.925781 -45.757812 20.535156 -47.09375 24.453125 -47.09375 C 27.023438 -47.09375 30.832031 -45.4375 35.875 -42.125 C 40.914062 -38.820312 45.101562 -35.597656 48.4375 -32.453125 C 48.375 -32.253906 45.820312 -30.273438 40.78125 -26.515625 C 35.738281 -22.765625 30.679688 -19.0625 25.609375 -15.40625 Z M 18.109375 -9.921875 "/></g></g></g><g fill="#e8e8e8" fill-opacity="1"><g transform="translate(277.700063, 200.794368)"><g><path d="M 13.671875 2.125 C 10.398438 0.582031 7.960938 -1.757812 6.359375 -4.90625 C 6.484375 -5.9375 7.441406 -7.253906 9.234375 -8.859375 C 11.035156 -10.460938 12.484375 -11.394531 13.578125 -11.65625 C 16.847656 -10.175781 19.253906 -7.894531 20.796875 -4.8125 C 19.703125 -2.050781 17.328125 0.257812 13.671875 2.125 Z M 13.671875 2.125 "/></g></g></g></svg>